<svg width="100" height="100" viewBox="0 0 100 100" fill="none" xmlns="http://www.w3.org/2000/svg">
<g clip-path="url(#clip0_8_32)">
<path d="M44.4444 5.55556C44.4444 5.55556 44.4444 0 50 0C55.5556 0 55.5556 5.55556 55.5556 5.55556V11.1111C55.5556 11.1111 55.5556 16.6667 50 16.6667C44.4444 16.6667 44.4444 11.1111 44.4444 11.1111V5.55556ZM94.4444 44.4444C94.4444 44.4444 100 44.4444 100 50C100 55.5556 94.4444 55.5556 94.4444 55.5556H88.8889C88.8889 55.5556 83.3333 55.5556 83.3333 50C83.3333 44.4444 88.8889 44.4444 88.8889 44.4444H94.4444ZM11.1111 44.4444C11.1111 44.4444 16.6667 44.4444 16.6667 50C16.6667 55.5556 11.1111 55.5556 11.1111 55.5556H5.55556C5.55556 55.5556 0 55.5556 0 50C0 44.4444 5.55556 44.4444 5.55556 44.4444H11.1111ZM25.3361 20.2583C25.3361 20.2583 29.2639 24.1861 25.3361 28.1139C21.4083 32.0417 17.4806 28.1139 17.4806 28.1139L13.55 24.1889C13.55 24.1889 9.62222 20.2611 13.55 16.3306C17.4806 12.4028 21.4083 16.3306 21.4083 16.3306L25.3361 20.2583ZM83.6694 78.5917C83.6694 78.5917 87.5972 82.5194 83.6694 86.4472C79.7417 90.375 75.8139 86.4472 75.8139 86.4472L71.8861 82.5194C71.8861 82.5194 67.9583 78.5917 71.8861 74.6639C75.8139 70.7361 79.7417 74.6639 79.7417 74.6639L83.6694 78.5917ZM82.5222 28.1139C82.5222 28.1139 78.5944 32.0417 74.6667 28.1139C70.7389 24.1861 74.6667 20.2583 74.6667 20.2583L78.5944 16.3306C78.5944 16.3306 82.5222 12.4028 86.45 16.3306C90.3778 20.2583 86.45 24.1861 86.45 24.1861L82.5222 28.1139ZM24.1889 86.4472C24.1889 86.4472 20.2611 90.375 16.3333 86.4472C12.4056 82.5194 16.3333 78.5917 16.3333 78.5917L20.2611 74.6639C20.2611 74.6639 24.1889 70.7361 28.1167 74.6639C32.0444 78.5917 28.1167 82.5194 28.1167 82.5194L24.1889 86.4472ZM44.4444 88.8889C44.4444 88.8889 44.4444 83.3333 50 83.3333C55.5556 83.3333 55.5556 88.8889 55.5556 88.8889V94.4444C55.5556 94.4444 55.5556 100 50 100C44.4444 100 44.4444 94.4444 44.4444 94.4444V88.8889Z" fill="#DD1E85"/>
<path d="M78.5 50C78.5 64.6355 66.6355 76.5 52 76.5C37.3645 76.5 25.5 64.6355 25.5 50C25.5 35.3645 37.3645 23.5 52 23.5C66.6355 23.5 78.5 35.3645 78.5 50Z" stroke="black"/>
</g>
<defs>
<clipPath id="clip0_8_32">
<rect width="100" height="100" fill="white"/>
</clipPath>
</defs>
</svg>
