<svg width="58" height="39" viewBox="0 0 58 39" fill="none" xmlns="http://www.w3.org/2000/svg">
<path d="M15.7057 19.0658L3.74194 8.323V29.8083L15.7057 19.0658ZM21.2841 20.1141L1.4544 37.9197C1.02452 38.3058 0.4437 38.1493 0.157105 37.5704C0.0546698 37.3633 0 37.1201 0 36.8714V1.26C0 0.564103 0.418835 0 0.935484 0C1.12017 0 1.30073 0.0736348 1.4544 0.211605L21.2841 18.0172C21.7139 18.4033 21.8301 19.1857 21.5434 19.7646C21.475 19.9029 21.3868 20.0219 21.2841 20.1141Z" fill="#DD1E85"/>
<path d="M35.5484 2.52002H39.2903V37.8001H35.5484V2.52002ZM54.2581 2.52002H58V37.8001H54.2581V2.52002Z" fill="#DD1E85"/>
</svg>
